<svg width="20" height="21" viewBox="0 0 20 21" fill="none" xmlns="http://www.w3.org/2000/svg">
<path d="M5.33246 19.349H1.23056V8.68407H5.33246V19.349ZM12.7159 11.9656C12.2807 11.9656 11.8634 12.1385 11.5557 12.4462C11.248 12.7539 11.0751 13.1712 11.0751 13.6063V19.349H6.97322V8.68407H11.0751V9.90233C11.9909 9.12616 13.1481 8.69258 14.3484 8.67586C16.7784 8.67586 18.4585 10.4807 18.4585 13.8894V19.349H14.3566V13.6063C14.3566 13.1712 14.1838 12.7539 13.8761 12.4462C13.5684 12.1385 13.151 11.9656 12.7159 11.9656ZM5.33246 4.99236C5.33246 5.398 5.21217 5.79453 4.98681 6.1318C4.76145 6.46908 4.44114 6.73196 4.06638 6.88719C3.69161 7.04242 3.27924 7.08303 2.88139 7.0039C2.48355 6.92476 2.1181 6.72943 1.83127 6.4426C1.54444 6.15577 1.34911 5.79032 1.26997 5.39248C1.19083 4.99463 1.23145 4.58225 1.38668 4.20749C1.54191 3.83273 1.80479 3.51241 2.14206 3.28705C2.47934 3.06169 2.87587 2.94141 3.28151 2.94141C3.82546 2.94141 4.34712 3.15749 4.73175 3.54212C5.11638 3.92674 5.33246 4.44841 5.33246 4.99236Z" fill="white"/>
</svg>
