<svg width="19" height="16" viewBox="0 0 19 16" fill="none" xmlns="http://www.w3.org/2000/svg">
<path d="M19 2.68889L17.2727 2.24137L18.1364 0.451283L16.0084 1.07781C15.4559 0.543641 14.7646 0.188811 14.0197 0.0571161C13.2749 -0.074579 12.5092 0.0226251 11.817 0.336731C11.1249 0.650838 10.5367 1.1681 10.1249 1.82467C9.71316 2.48125 9.49592 3.24841 9.5 4.03146V4.9265C6.44359 5.57988 3.77064 3.85245 1.29545 0.898805C0.863636 3.28559 1.29545 5.07568 2.59091 6.26907L0 5.82155C0.349773 7.67339 1.17627 9.13321 3.45455 9.40172L1.29545 10.2968C2.15909 12.0869 3.51155 12.3643 5.61364 12.5344C3.9787 13.745 2.00884 14.3732 0 14.3245C11.0157 19.3985 17.2727 11.9401 17.2727 5.37402V4.18541L19 2.68889Z" fill="white"/>
</svg>
