<svg width="18" height="19" viewBox="0 0 18 19" fill="none" xmlns="http://www.w3.org/2000/svg">
<g clip-path="url(#clip0_0_405)">
<path d="M16.351 7.99814C16.3511 7.66473 16.2855 7.33457 16.158 7.0265C16.0305 6.71844 15.8435 6.43852 15.6078 6.20273C15.3721 5.96694 15.0922 5.77989 14.7842 5.65228C14.4761 5.52467 14.146 5.45898 13.8126 5.45898H1.90682C1.57347 5.45908 1.24341 5.52484 0.935467 5.65249C0.627529 5.78015 0.34775 5.96721 0.112105 6.20299C-0.123541 6.43877 -0.310438 6.71866 -0.437916 7.02667C-0.565394 7.33469 -0.630956 7.66479 -0.630859 7.99814V14.7326C-0.631053 15.066 -0.565562 15.3962 -0.438128 15.7043C-0.310693 16.0124 -0.123811 16.2923 0.111844 16.5282C0.347499 16.764 0.627311 16.9512 0.935297 17.0789C1.24328 17.2066 1.57341 17.2724 1.90682 17.2725H13.8126C14.1461 17.2725 14.4763 17.2067 14.7843 17.0791C15.0924 16.9514 15.3723 16.7643 15.608 16.5284C15.8438 16.2926 16.0307 16.0126 16.1582 15.7044C16.2857 15.3963 16.3512 15.066 16.351 14.7326V7.99814ZM6.01422 14.274V7.88001L11.0121 11.0778L6.01422 14.274Z" fill="white"/>
</g>
<defs>
<clipPath id="clip0_0_405">
<rect width="17.7202" height="17.7202" fill="white" transform="translate(0 0.875)"/>
</clipPath>
</defs>
</svg>
